<svg height="24" viewBox="0 0 24 24" width="24" xmlns="http://www.w3.org/2000/svg"><path d="m6.16663398.69560321c.27468514.48069899.2583501 1.32984941-.01460043 2.62043697.13854892.07939189.27073614.17406098.39289589.28592855l3.12336487 2.86021569c.39093339.3579965.61355049.86371498.61355049 1.39380024v10.19905504c0 .5218872-.42307312.9449603-.94496027.9449603h-8.39192427c-.52188714 0-.94496026-.4230731-.94496026-.9449603v-10.19905504c0-.53008526.22261714-1.03580374.61355049-1.39380024l3.12336487-2.86021569c.4279871-.39192841.97905681-.57275348 1.52061783-.54247524l.07412808-.38908055c.13950469-.7999273.14285396-1.31784146.03021994-1.514951-.12042102-.21073678-.27250239-.27682929-.56362282-.20264441l-.03690204.01019696-.02039304.01784469c-.12757476.11499233-.19127265.20959741-.20896154.2819391l-.0052352.0407184v.66147218c0 .25594944-.20748801.46343745-.46343744.46343745-.22751061 0-.41673072-.16394115-.45597086-.38013398l-.00746659-.08330347v-.66147218c0-.36913157.18316113-.703204.51504846-1.00583302l.13136204-.11201904.14295529-.07777152c.76544957-.25514986 1.40887135-.05717392 1.77737651.58771011zm-1.12569471 3.29183406c-.20510749.01778449-.40639114.09040448-.58027063.21785997l-.09778233.08023381-3.12336487 2.86021569c-.17074943.15636348-.27848505.36803074-.30578198.59541772l-.00686456.1148202v10.19905504l.00529708.0127883.01278828.0052971h8.39192427l.01278829-.0052971.00529708-.0127883v-10.19905504c0-.23152732-.08334285-.45393228-.23260365-.62763079l-.08004289-.08260713-3.12237339-2.85895034-.25782647.92937475c.48665514.21639004.82600078.70407467.82600078 1.27101773 0 .76784831-.62246404 1.39031235-1.39031234 1.39031235-.76784831 0-1.39031235-.62246404-1.39031235-1.39031235 0-.63666315.42793995-1.17337557 1.01186686-1.33818426zm-.0887224 5.01256273c.95983997 0 1.62603398.65977827 1.74164182 1.6189309l.0136409.1538805h-.70211309c-.06849883-.7127798-.56511541-1.05089335-1.05316963-1.05089335-.76204956 0-1.08741904.57570685-1.08741904 1.09658435 0 .6536503.43232484 1.234448 1.21131264 1.3005153l.15010176.0062478h.95042137v.7310563h-1.75528272c.01712471.1279348.03424942.2558696.03424942.4112191 0 .4317801-.06555553.8565638-.25402767 1.2927166l-.08846652.1876723h2.47452052v.7401945h-3.32219363v-.5208776c.38530596-.4843248.52230363-1.0508934.52230363-1.4712507 0-.1850486-.01444897-.3443961-.03612243-.493463l-.02381405-.1462112h-.72780015v-.7310563h.58224012c.12843532.1919023.29968242.2741461.52230364.3015607-.18837181-.1187966-.35105655-.2467315-.47949187-.3838045-.29968241-.3198371-.46236715-.7310563-.46236715-1.2153811 0-1.03261692.7363625-1.8276406 1.78953213-1.8276406zm.42564468-2.88209408-.04660979.05389401c-.1142541.11077676-.28259065.15972515-.44699856.11405629-.05775355-.01604266-.10990059-.04233829-.1550198-.07637225-.06006115.07619759-.09485891.17288752-.09485891.27770491 0 .25594944.20748801.46343745.46343745.46343745.25594943 0 .46343745-.20748801.46343745-.46343745 0-.15072578-.0719548-.28464561-.18338784-.36928296z" fill="#56707a" transform="translate(7 2)"/></svg>