<svg height="24" viewBox="0 0 24 24" width="24" xmlns="http://www.w3.org/2000/svg"><path d="m.69368815 7.85901652.78547149.22825947.62189587.19341907c2.097305.67939437 3.36258304 1.3864142 3.82556944 2.18833014.65392646 1.1326339.36497444 2.5568358-.5884026 3.5255648 1.11540533.7154756 2.4324313 1.1165211 3.81837396 1.1165211 2.89486809 0 5.46513709-1.7525961 6.55070919-4.3833517.0994817-.2410822.3755633-.3558721.6166455-.2563904.2410822.0994818.3558721.3755633.2563903.6166455-1.2302312 2.98132-4.1431228 4.9675411-7.42374499 4.9675411-1.68928597 0-3.28867118-.5260886-4.61198991-1.4555429l.03122573-.0169256c-1.53229234.8846694-3.43351053.5066891-4.23827853-.88721-.485952-.8416936-.43943726-2.3965587.08937128-4.73326525l.14885757-.6273563zm.68350673 1.18509498-.08829144.39699199-.11415139.56615201c-.30768618 1.6374188-.30362565 2.7239079-.01928557 3.2163994.47053037.8149825 1.56344643 1.1121801 2.57518178.7203574-.51784233-.4741536-.97507265-1.0182939-1.3583892-1.6228064-.13966143-.2202542-.07432808-.5120235.14592613-.6516849.2202542-.1396614.51202347-.0743281.65168491.1459261.38722726.61068.85974568 1.1514823 1.39781382 1.6093962.74994934-.684311.98760093-1.7101091.54102815-2.4835958-.31593342-.5472128-1.43996168-1.16142504-3.34250406-1.77571593l-.27708458-.08774915zm7.77940143-9.0441115c1.59513139 0 3.11140419.46887242 4.39129079 1.30591002l.1533062-.09392802c1.5322923-.88466939 3.4335105-.50668902 4.2382785.88721005.5070804.87828892.434386 2.5331125-.1610773 5.04249257l-.1950572.79436799-.7854715-.22825947c-2.4709185-.73900373-3.940385-1.50346032-4.4474654-2.38174924-.6205781-1.07487288-.3919936-2.41233387.4477653-3.3739033-1.0768445-.64806118-2.3287413-1.00769616-3.64156939-1.00769616-2.93771426 0-5.53836914 1.80492212-6.59504355 4.49341472-.09540017.24272626-.3695058.36215767-.61223206.2667575-.24272626-.09540016-.36215767-.36950579-.2667575-.61223205 1.19754244-3.04690257 4.14481247-5.09238461 7.47403311-5.09238461zm5.30867729 1.88402533-.0913754.04146743c.5257827.44999845.9962538.97030382 1.3969536 1.55167206.1480044.21473691.093907.50879681-.12083.65680117-.2147369.14800436-.5087968.09390694-.6568011-.12082996-.3987447-.57853153-.8755732-1.08847307-1.4122925-1.51819483-.6471958.67975452-.8328414 1.63102677-.4126149 2.35888048.3159334.54721273 1.4399617 1.161425 3.3425041 1.77571588l.3890131.12142008.0882915-.396992c.4192796-1.95479547.4493703-3.23533864.1334369-3.78255137-.4589759-.79496963-1.5101459-1.09727179-2.5005122-.74797858z" fill="#56707a" transform="translate(2.766989 4.472222)"/></svg>